<svg xmlns="http://www.w3.org/2000/svg" width="194.704" height="194.704" viewBox="0 0 194.704 194.704"><defs><style>.a{fill:#1a1311;}</style></defs><g transform="translate(0 0)"><path class="a" d="M1518.614,844.648a97.352,97.352,0,1,1,97.352-97.352A97.464,97.464,0,0,1,1518.614,844.648Zm0-192.766a95.414,95.414,0,1,0,95.414,95.414A95.52,95.52,0,0,0,1518.614,651.882Z" transform="translate(-1421.262 -649.944)"/><g transform="translate(11.437 11.437)"><path class="a" d="M1514.476,829.071a85.914,85.914,0,1,1,85.915-85.913A86.011,86.011,0,0,1,1514.476,829.071Zm0-169.891a83.976,83.976,0,1,0,83.977,83.978A84.074,84.074,0,0,0,1514.476,659.18Z" transform="translate(-1428.561 -657.243)"/></g><path class="a" d="M1459.058,684.95c1.656,1.5,2.371,3.438.743,5.232-1.326,1.457-1.733.649-2.306.13l-4.062-3.692c-.544-.5-.891-.763.066-1.819C1455.152,682.982,1457.35,683.4,1459.058,684.95Zm-.252,17.932c2.222,2.02-.506,3.165.993,4.524,1.765,1.6,5.442-2.39,6.476-3.527,1.111-1.222,4.574-5.2,2.807-6.807-1.57-1.429-1.959,1.835-5.426-1.164l-1.57-1.428a.5.5,0,0,1-.044-.829c.669-.738,1.545-1.42,2.288-2.241,3.422-3.767,4.361-9.159.313-12.833-4.062-3.693-9.255-1.91-12.608,1.777-.534.592-2.791,3.9-6.36,7.83-.619.677-1.265,1.28-1.884,1.959-.762.843-1.631,2.236-.542,3.225,1.705,1.55,2.919-1.963,4.957-.115Z" transform="translate(-1409.086 -634.864)"/><path class="a" d="M1523.5,686.37c.89-.725,1.465-1.33,2.4-.341,1.464,1.547.428,3.117-.873,4.345-1.653,1.565-3.142,1.915-4.784.177-.824-.87-.111-1.3.636-1.893Zm-14.885,2.169c-3.466,3.276-4.392.363-5.779,1.673-1.949,1.843,1.626,5.629,2.839,6.909,4.074,4.309,5.427,4.3,6.387,3.393,1.283-1.21-.376-2.211.644-3.587a24.262,24.262,0,0,1,2.405-2.628c1.684-1.591,1.965-1.453,2.526-.862,1.374,1.456.607,3.046-.337,4.5-2.739,4.149-4.692,7-.661,11.266,2.841,3,5.072,3.217,6.077,2.266,1.629-1.542-1.5-1.855.679-4.521,2.521-3.082,2.966-5.078,1.893-7.6-.165-.448-.384-.89.016-1.263.316-.3.57-.193.936-.082a5.751,5.751,0,0,0,6-1.387c3.541-3.349,1.577-8.1-1.267-11.11-1.633-1.727-3.46-3.281-5.071-4.986-1.033-1.094-1.876-2.361-2.907-3.454-1.009-1.066-3.164-2.966-4.627-1.583-1.652,1.562,1.968,1.978-2.166,5.881Z" transform="translate(-1375.336 -635.737)"/><path class="a" d="M1474.524,710.45H1437v36.062h37.5l35.2,20.706,35.2-20.706h37.491V710.45h-37.521l-35.17-20.685Zm35.167-18.362,31.22,18.362h-62.435Zm0,72.8-31.245-18.379h62.489ZM1439,744.508V712.453H1580.38v32.055Z" transform="translate(-1412.34 -627.367)"/><g transform="translate(75.542 22.448)"><path class="a" d="M1493.781,669.768c-1.641,0-2.454,4.322-5.415,4.322a2.445,2.445,0,0,1-2.277-2.637,9.486,9.486,0,0,1,2.821-6.246,14.462,14.462,0,0,0-5.257-.937c-7.991,0-14.181,5.5-14.181,13.263,0,7.8,6.008,13.446,13.744,13.446a15.831,15.831,0,0,0,8.023-2.164,1.565,1.565,0,0,1-.158-.693c0-1.946,2.266-1.178,3-2.565a14.68,14.68,0,0,0,.547-3.88l.293-8.1C1495.069,669.735,1494.3,669.768,1493.781,669.768Zm-8.742,15.756c-3.957,0-6.15-8.759-6.15-11.871,0-1.8,1.022-3.917,3.073-3.917,4.289,0,6.272,8.527,6.272,11.865C1488.234,683.58,1487.272,685.524,1485.039,685.524Z" transform="translate(-1469.471 -664.27)"/><path class="a" d="M1501.67,664.27a4.659,4.659,0,0,0-1.5.254,12.333,12.333,0,0,1-2.863.26H1488.3a18.081,18.081,0,0,1-3.156-.26,10.631,10.631,0,0,0-1.36-.254,3,3,0,0,0-1.9.937c6.23,2.407,8.742,8.9,8.742,12.691a12.52,12.52,0,0,1-6.414,10.917c1.034,2.119,6.856,2.059,8.557,2.059,6.858,0,7.543-1.619,7.543-2.751,0-2.565-3.361-.476-3.361-4.836V672.039c0-.293-.149-2.271,1.284-2.271,1.868,0,1.829,4.322,5.017,4.322,1.868,0,2.814-1.2,2.814-3.035C1506.059,667.094,1503.1,664.27,1501.67,664.27Z" transform="translate(-1462.438 -664.27)"/></g><g transform="translate(64.731 39.988)"><path class="a" d="M1462.826,679.508a1.946,1.946,0,1,1,2.651.738,1.943,1.943,0,0,1-2.651-.738" transform="translate(-1462.572 -674.818)"/><path class="a" d="M1500.051,678.368a1.946,1.946,0,1,1,2.653.738,1.946,1.946,0,0,1-2.653-.738" transform="translate(-1441.466 -675.463)"/></g><path class="a" d="M1455.483,750.587a5.578,5.578,0,0,0-.517-2.46,16.045,16.045,0,0,1-.876-2.49,1.753,1.753,0,0,1,.5-1.316,1.679,1.679,0,0,1,1.222-.539,2.424,2.424,0,0,1,1.365.689,2.793,2.793,0,0,1,.815,1.178c.141.439-.064.813.185,1.2a.647.647,0,0,0,1.091-.108,1.33,1.33,0,0,0,.075-.876,3.733,3.733,0,0,0-1.268-2.084,3.937,3.937,0,0,0-2.527-1.266,2.715,2.715,0,0,0-2.17.874,2.686,2.686,0,0,0-.768,1.76,5.217,5.217,0,0,0,.6,2.531,9.062,9.062,0,0,1,.843,2.534,1.443,1.443,0,0,1-.462,1.044,1.916,1.916,0,0,1-1.382.619,2.208,2.208,0,0,1-1.559-.729,4.009,4.009,0,0,1-.66-.81.11.11,0,0,1-.014-.022,2.284,2.284,0,0,1-.3-.791,1.418,1.418,0,0,1-.025-.183c-.006-.453.222-.827.216-1.1a.625.625,0,0,0-1.155-.329,2.3,2.3,0,0,0-.332,1.045,2.43,2.43,0,0,0,.012.475l0,.008,0,0a2.915,2.915,0,0,0,.135.58c.012.035.028.072.041.107a3.066,3.066,0,0,0,.237.5l.128.2a7.357,7.357,0,0,0,.936,1.125,3.757,3.757,0,0,0,2.6,1.266,3.053,3.053,0,0,0,2.206-.992,2.74,2.74,0,0,0,.806-1.642" transform="translate(-1405.892 -597.462)"/><path class="a" d="M1446.834,736.534a.521.521,0,0,0,.484.829l3.341.074c.625.013,1.051.138,1.247.6.136.326-.07.577-.567.573l-4.945-.061a3.778,3.778,0,0,0-1.7.445l-2.842,1.666a.727.727,0,1,1-.712-1.214l2.843-1.664a3.847,3.847,0,0,0,1.222-1.255l2.349-4.387c.235-.437.613-.481.838-.094a1.4,1.4,0,0,1-.009,1.429Z" transform="translate(-1410.275 -603.545)"/><path class="a" d="M1523.744,737.051a.521.521,0,0,0,.482-.829l-1.576-2.946c-.3-.55-.4-.984-.088-1.382.216-.279.536-.222.777.212l2.377,4.339a3.757,3.757,0,0,0,1.22,1.257l2.847,1.658a.726.726,0,1,1-.708,1.216l-2.847-1.658a3.818,3.818,0,0,0-1.692-.447l-4.977.11c-.495.009-.719-.3-.492-.685a1.4,1.4,0,0,1,1.249-.694Z" transform="translate(-1365.86 -603.579)"/><path class="a" d="M1448.148,748.139a6.2,6.2,0,0,0,4.129-1.689,6.729,6.729,0,0,0,2.538-3.737,4.427,4.427,0,0,0-4.148-5.1,6.05,6.05,0,0,0-4.207,1.688,6.247,6.247,0,0,0-2.5,3.695,4.146,4.146,0,0,0,.916,3.535,4.015,4.015,0,0,0,3.269,1.608m-2.966-4.612a5.832,5.832,0,0,1,2.2-3.095,5.653,5.653,0,0,1,3.473-1.52,2.57,2.57,0,0,1,2.137,1.017,2.475,2.475,0,0,1,.559,2.3,5.66,5.66,0,0,1-2.194,3.093,5.838,5.838,0,0,1-3.479,1.523,2.475,2.475,0,0,1-2.128-1.022,2.566,2.566,0,0,1-.569-2.294" transform="translate(-1408.438 -600.246)"/><path class="a" d="M1460.15,758.348a.726.726,0,1,1-1.169-.783l1.746-2.6a.91.91,0,0,0-.245-1.257l-2.653-1.778a.91.91,0,0,0-1.254.252l-1.745,2.6a.748.748,0,1,1-1.214-.813l5.061-7.548a.749.749,0,1,1,1.214.815l-1.68,2.505a.909.909,0,0,0,.241,1.258l2.651,1.779a.912.912,0,0,0,1.258-.252l1.68-2.506a.727.727,0,1,1,1.169.782Z" transform="translate(-1403.022 -595.503)"/><path class="a" d="M1460.932,758.8a.747.747,0,1,1-1.28-.7l4.363-7.971a.748.748,0,1,1,1.28.7Z" transform="translate(-1399.571 -593.437)"/><path class="a" d="M1468.526,762.391a5.544,5.544,0,0,0,3.588-3.334,5.427,5.427,0,0,0,.371-4.806,5.721,5.721,0,0,0-2.9-2.39l-1.921-.92a.915.915,0,0,0-1.218.429l-3.925,8.192a.914.914,0,0,0,.433,1.213l2.068.992a5.22,5.22,0,0,0,3.505.624m2.781-7.642a5.021,5.021,0,0,1-.611,3.753,4.493,4.493,0,0,1-2.191,2.5,3.73,3.73,0,0,1-3.074-.351l-.653-.312a.91.91,0,0,1-.426-1.21l2.932-6.12a.912.912,0,0,1,1.21-.426l.653.313a3.854,3.854,0,0,1,2.161,1.85" transform="translate(-1397.92 -592.733)"/><path class="a" d="M1476.727,754.569a1.3,1.3,0,0,0-.821-1.08,1.328,1.328,0,0,0-1.236.556l-5.856,8.064c-.292.406-.252.8.1.89a1.3,1.3,0,0,0,1.159-.573l.835-1.141a1.486,1.486,0,0,1,1.423-.514l2.933.722a1.423,1.423,0,0,1,.989,1.12l.163,1.359a1.312,1.312,0,0,0,.845,1.081c.409.1.689-.224.628-.719Zm-.857,5.044a.587.587,0,0,1-.776.678l-2.059-.506a.569.569,0,0,1-.348-.953l2.112-2.957c.3-.4.581-.331.635.164Z" transform="translate(-1394.412 -591.249)"/><path class="a" d="M1483.832,763.879a3.951,3.951,0,0,1-2.212.91,2.192,2.192,0,0,1-1.615-.711,2.021,2.021,0,0,1-.642-1.583,3.042,3.042,0,0,1,.476-1.5,2.8,2.8,0,0,1,1.379-1.158,30.65,30.65,0,0,0,2.615,4.046m1.575,1.709a3.372,3.372,0,0,0,.854.083c.5.011.619-.276.277-.631,0,0-.638-.669-1.075-1.24a7.236,7.236,0,0,0,1.378-4.3l-.384-.008c-.495-.009-.677.282-.827.962-.064.3-.171.8-.295,1.208a3.858,3.858,0,0,1-.584,1.229,22.313,22.313,0,0,1-2.344-3.65,4.415,4.415,0,0,0,1.6-1.373,2.545,2.545,0,0,0,.6-1.562,1.907,1.907,0,0,0-.589-1.362,2.313,2.313,0,0,0-1.675-.6,2.4,2.4,0,0,0-1.814.638,2.065,2.065,0,0,0-.76,1.559,2.324,2.324,0,0,0,.147.794,7.643,7.643,0,0,0,.647,1.357c.058.1-.229.4-.649.661a4.687,4.687,0,0,0-1.13,1.1,3.2,3.2,0,0,0-.776,2.064,3.131,3.131,0,0,0,.964,2.379,3.418,3.418,0,0,0,2.51,1.009,4.026,4.026,0,0,0,3-1.175,5.184,5.184,0,0,0,.924.854m-4.237-9.128a1.3,1.3,0,0,1,.355-.838,1,1,0,0,1,.737-.268,1.621,1.621,0,0,1,.837.3,1.029,1.029,0,0,1,.323.741,1.664,1.664,0,0,1-.357.89,1.09,1.09,0,1,1-1.895-.826" transform="translate(-1389.09 -590.752)"/><path class="a" d="M1494.354,762.486a.6.6,0,0,0-.331.321,2.5,2.5,0,0,1-.494.99,2.706,2.706,0,0,1-1.539.708,2.786,2.786,0,0,1-2.382-.649,5.928,5.928,0,0,1-1.581-3.5,6.109,6.109,0,0,1,.412-3.823,2.934,2.934,0,0,1,2.127-1.312,2.707,2.707,0,0,1,1.619.149,1.458,1.458,0,0,1,.6.6,1.271,1.271,0,0,0,.375.345c.4.154.874-.36.658-.915a2.87,2.87,0,0,0-.743-.86,3.586,3.586,0,0,0-2.742-.418,4.3,4.3,0,0,0-3.1,1.974,6.061,6.061,0,0,0-.647,4.486,6.2,6.2,0,0,0,2.012,4.062,4.289,4.289,0,0,0,3.562.91,4.706,4.706,0,0,0,1.55-.5c.026-.014.047-.034.072-.049a3.535,3.535,0,0,0,.486-.346c.042-.041.077-.089.119-.132a2.58,2.58,0,0,0,.257-.285c.019-.027.028-.047.046-.074s.025-.028.034-.044a.117.117,0,0,0,.013-.039,2.618,2.618,0,0,0,.338-.832c.025-.494-.229-.848-.719-.769" transform="translate(-1384.303 -590.924)"/><path class="a" d="M1502.093,761.719a6.259,6.259,0,0,0,.07-4.458,6.8,6.8,0,0,0-2.422-3.811,4.243,4.243,0,0,0-3.593-.5,4.179,4.179,0,0,0-2.737,2.3,6.046,6.046,0,0,0-.116,4.533,6.23,6.23,0,0,0,2.418,3.751,4.121,4.121,0,0,0,3.6.553,4.037,4.037,0,0,0,2.777-2.369m-5.414.906a5.841,5.841,0,0,1-1.974-3.242,5.66,5.66,0,0,1-.027-3.792,2.572,2.572,0,0,1,1.775-1.561,2.469,2.469,0,0,1,2.333.392,5.663,5.663,0,0,1,1.976,3.237,5.829,5.829,0,0,1,.025,3.8,2.47,2.47,0,0,1-1.779,1.553,2.576,2.576,0,0,1-2.33-.384" transform="translate(-1380.633 -591.65)"/><path class="a" d="M1507.806,758.259a1.3,1.3,0,0,1-.553,1.211,1.329,1.329,0,0,1-1.312-.285l-4.039-3.546c-.373-.326-.5-.227-.282.221l2.847,5.788c.218.445.152.934-.152,1.083s-.74-.092-.959-.536l-4.01-8.154a.834.834,0,0,1,.229-1.131,1.344,1.344,0,0,1,1.324.284l5.092,4.344c.379.32.664.18.627-.312l-.5-6.6a1.31,1.31,0,0,1,.541-1.2.826.826,0,0,1,1.009.522l4.01,8.154c.218.445.154.932-.16,1.088s-.73-.1-.95-.542l-2.921-5.94c-.218-.44-.362-.4-.323.089Z" transform="translate(-1377.058 -593.573)"/><path class="a" d="M1513.685,750.788a3.43,3.43,0,0,0-.555-2.745,2.736,2.736,0,0,0-2.233-1.418,5,5,0,0,0-2.648,1.1l-1.774,1.188a.912.912,0,0,0-.241,1.262l5.055,7.55a.748.748,0,1,0,1.214-.812l-1.4-2.093a.91.91,0,0,1,.254-1.257l.365-.245a4.276,4.276,0,0,0,1.965-2.526m-2.972-2.819a1.757,1.757,0,0,1,1.236.932,2.683,2.683,0,0,1,.467,1.714c-.049.671-.591,1.341-1.619,2.031l-.036.023a.907.907,0,0,1-1.258-.243l-1.432-2.141a.911.911,0,0,1,.252-1.258l.6-.4a3.146,3.146,0,0,1,1.789-.658" transform="translate(-1373.174 -595.131)"/><path class="a" d="M1513.245,743.917a1.278,1.278,0,0,0-1.343.064,1.337,1.337,0,0,0-.241,1.343l3.386,9.369c.168.473.522.661.783.426a1.308,1.308,0,0,0,.19-1.291l-.476-1.332a1.474,1.474,0,0,1,.367-1.459l2.249-2.024a1.423,1.423,0,0,1,1.482-.191l1.216.629a1.318,1.318,0,0,0,1.369-.091c.309-.279.2-.7-.241-.925Zm3.7,3.538a.585.585,0,0,1,.134,1.019l-1.581,1.423a.572.572,0,0,1-.986-.244l-1.253-3.414c-.174-.469.049-.663.493-.434Z" transform="translate(-1370.054 -596.754)"/><path class="a" d="M1527.394,743.6a.83.83,0,0,1,.243,1.12,1.616,1.616,0,0,1-1.348.406l-8.3-1.2c-.5-.074-.587.132-.2.456l5.231,4.411a.7.7,0,1,1-.87,1.033l-6.946-5.859a.825.825,0,0,1-.245-1.124,1.66,1.66,0,0,1,1.352-.417l8.294,1.133c.494.069.586-.144.207-.462l-5.187-4.375a.683.683,0,1,1,.831-.984Z" transform="translate(-1368.22 -600.32)"/></g></svg>